<svg width="300" height="300" viewBox="0 0 300 300" fill="none" xmlns="http://www.w3.org/2000/svg">
<rect width="300" height="300" rx="150" fill="#0284C7"/>
<path d="M171.175 176V167.25H175C175.95 167.25 176.783 167.433 177.5 167.8C178.217 168.167 178.775 168.675 179.175 169.325C179.575 169.975 179.775 170.742 179.775 171.625C179.775 172.5 179.575 173.267 179.175 173.925C178.775 174.575 178.217 175.083 177.5 175.45C176.783 175.817 175.95 176 175 176H171.175ZM172.8 174.625H174.925C175.583 174.625 176.15 174.5 176.625 174.25C177.108 174 177.479 173.65 177.738 173.2C178.004 172.75 178.137 172.225 178.137 171.625C178.137 171.017 178.004 170.492 177.738 170.05C177.479 169.6 177.108 169.25 176.625 169C176.15 168.75 175.583 168.625 174.925 168.625H172.8V174.625Z" fill="white"/>
<path d="M184.877 170.888H189.227V172.225H184.877V170.888ZM185.002 174.638H189.94V176H183.377V167.25H189.765V168.613H185.002V174.638Z" fill="white"/>
<path d="M196.092 176L192.267 167.25H194.029L197.442 175.163H196.429L199.879 167.25H201.504L197.692 176H196.092Z" fill="white"/>
<path d="M60.5 158V123H78.4C83 123 86.4333 123.85 88.7 125.55C90.9667 127.217 92.1 129.417 92.1 132.15C92.1 133.95 91.6167 135.533 90.65 136.9C89.7167 138.233 88.3833 139.3 86.65 140.1C84.95 140.867 82.9167 141.25 80.55 141.25L81.55 138.85C84.0167 138.85 86.1667 139.233 88 140C89.8333 140.733 91.25 141.817 92.25 143.25C93.2833 144.65 93.8 146.367 93.8 148.4C93.8 151.433 92.5667 153.8 90.1 155.5C87.6667 157.167 84.1 158 79.4 158H60.5ZM70.3 150.85H78.6C80.3 150.85 81.5833 150.567 82.45 150C83.35 149.4 83.8 148.5 83.8 147.3C83.8 146.1 83.35 145.217 82.45 144.65C81.5833 144.05 80.3 143.75 78.6 143.75H69.6V136.9H77.1C78.7667 136.9 80.0167 136.617 80.85 136.05C81.6833 135.483 82.1 134.633 82.1 133.5C82.1 132.367 81.6833 131.533 80.85 131C80.0167 130.433 78.7667 130.15 77.1 130.15H70.3V150.85Z" fill="white"/>
<path d="M103.928 158V123H119.928C123.128 123 125.878 123.517 128.178 124.55C130.511 125.583 132.311 127.083 133.578 129.05C134.844 130.983 135.478 133.283 135.478 135.95C135.478 138.583 134.844 140.867 133.578 142.8C132.311 144.7 130.511 146.167 128.178 147.2C125.878 148.2 123.128 148.7 119.928 148.7H109.428L113.828 144.55V158H103.928ZM125.578 158L116.878 145.25H127.428L136.178 158H125.578ZM113.828 145.6L109.428 141.05H119.328C121.394 141.05 122.928 140.6 123.928 139.7C124.961 138.8 125.478 137.55 125.478 135.95C125.478 134.317 124.961 133.05 123.928 132.15C122.928 131.25 121.394 130.8 119.328 130.8H109.428L113.828 126.25V145.6Z" fill="white"/>
<path d="M155.039 136.55H171.289V143.95H155.039V136.55ZM155.739 150.35H174.039V158H145.939V123H173.389V130.65H155.739V150.35Z" fill="white"/>
<path d="M184.533 158V123H194.433V158H184.533Z" fill="white"/>
<path d="M202.277 158L217.727 123H227.477L242.977 158H232.677L220.577 127.85H224.477L212.377 158H202.277ZM210.727 151.2L213.277 143.9H230.377L232.927 151.2H210.727Z" fill="white"/>
<path d="M57 167H166V176H57V167Z" fill="white"/>
</svg>
