<svg xmlns="http://www.w3.org/2000/svg" version="1.1" xmlns:xlink="http://www.w3.org/1999/xlink" xmlns:svgjs="http://svgjs.dev/svgjs" width="1000" height="1000" viewBox="0 0 1000 1000"><rect width="1000" height="1000" fill="#0284c7"></rect><g transform="matrix(0.7,0,0,0.7,149.57605563665675,413.94885382070487)"><svg viewBox="0 0 396 98" data-background-color="#0284c7" preserveAspectRatio="xMidYMid meet" height="247" width="1000" xmlns="http://www.w3.org/2000/svg" xmlns:xlink="http://www.w3.org/1999/xlink"><defs></defs><g id="tight-bounds" transform="matrix(1,0,0,1,0.24008861730862918,-0.22607099149263377)"><svg viewBox="0 0 395.52 98.4521419829853" height="98.4521419829853" width="395.52"><g><svg viewBox="0 0 395.52 98.4521419829853" height="98.4521419829853" width="395.52"><g><svg viewBox="0 0 395.52 98.4521419829853" height="98.4521419829853" width="395.52"><g><svg viewBox="0 0 395.52 98.4521419829853" height="98.4521419829853" width="395.52"><g><svg viewBox="0 0 395.52 98.4521419829853" height="98.4521419829853" width="395.52"><path d="M394.594 21.116C392.735 10.897 387.435 8.056 387.435 8.056 371.165-2.47 350.86-0.201 332.619 1.311 300.414 1.372 268.339 3.621 236.208 4.827 168.767 5.01 100.749 1.986 33.643 9.446 27.339 11.735-6.54 9.895 1.121 22.424 3.129 27.636 10.456 33.42 10.232 38.203 11.236 39.041 12.631 37.12 13.226 38.325 15.309 41.575 18.711 40.042 21.501 41.963 17.614 47.094 20.403 51.365 23.062 55.841 18.377 57.006 12.371 56.454 9.675 60.317 9.396 63.117 7.89 62.586 6.235 62.463 5.026 62.382 2.59 62.688 2.999 63.567 4.394 66.572-1.594 68.309 2.162 71.252-0.422 74.44 3.948 77.2 3.353 80.654 3.278 81.349 3.687 81.941 4.338 82.105 7.22 82.984 3.018 84.701 3.464 86.56 33.029 99.273 65.104 90.485 95.394 96.33 103.259 92.242 97.346 97.781 100.489 96.923 102.943 95.921 104.728 100.07 107.499 97.72 107.927 97.045 107.276 95.451 108.8 95.758 109.6 95.921 110.307 95.88 110.418 94.94 110.586 93.53 109.117 94.409 108.726 93.673 112.947 89.953 111.906 98.803 115.866 98.435 115.68 97.352 114.528 95.799 116.889 96.003 119.232 94.45 119.306 93.162 121.389 96.657 121.463 97.413 121.835 97.945 122.43 98.313 128.938 94.511 135.409 99.662 142.233 97.945 146.417 96.064 150.433 98.967 154.672 98.251 156.16 97.679 157.666 96.657 159.098 98.374 176.632 98.742 195.319 97.209 211.943 98.435 256.364 96.146 303.835 99.375 350.674 96.351 361.719 95.186 373.192 93.53 383.958 92.202 383.958 92.202 392.679 88.563 392.679 72.213S394.538 57.906 394.817 44.886C395.096 31.867 396.398 31.335 394.538 21.116Z" opacity="1" fill="#ffffff" data-fill-palette-color="tertiary"></path><g transform="matrix(1,0,0,1,55.76832,26.230666666666668)"><svg width="283.98335999999995" viewBox="3.8499999046325684 -34.900001525878906 215.47999572753906 34.900001525878906" height="45.99080864965197" data-palette-color="#0284c7"><path d="M3.85 0L3.85-34.9 18-34.9Q22.05-34.9 24.15-32.6 26.25-30.3 26.25-25.9L26.25-25.9Q26.25-22.55 24.8-20.65 23.35-18.75 20.65-18.5L20.65-18.5 20.65-17.9Q22.15-17.9 23.38-17.32 24.6-16.75 25.5-15.7 26.4-14.65 26.9-13.2 27.4-11.75 27.4-10.05L27.4-10.05Q27.4-7.8 26.83-5.95 26.25-4.1 25.2-2.78 24.15-1.45 22.68-0.73 21.2 0 19.4 0L19.4 0 3.85 0ZM9.15-15.55L9.15-4.65 17.85-4.65Q19.75-4.65 20.75-5.68 21.75-6.7 21.75-8.95L21.75-8.95 21.75-11.25Q21.75-13.5 20.75-14.53 19.75-15.55 17.85-15.55L17.85-15.55 9.15-15.55ZM9.15-30.25L9.15-20.1 17-20.1Q18.75-20.1 19.7-21.03 20.65-21.95 20.65-24.05L20.65-24.05 20.65-26.3Q20.65-28.4 19.7-29.33 18.75-30.25 17-30.25L17-30.25 9.15-30.25ZM38.9-14.25L38.9 0 33.6 0 33.6-34.9 47.4-34.9Q51.9-34.9 54.17-32.23 56.45-29.55 56.45-24.55L56.45-24.55Q56.45-20.5 54.95-18 53.45-15.5 50.45-14.65L50.45-14.65 57.1 0 51.2 0 45.15-14.25 38.9-14.25ZM38.9-18.7L46.95-18.7Q48.85-18.7 49.82-19.68 50.8-20.65 50.8-22.85L50.8-22.85 50.8-26.1Q50.8-28.3 49.82-29.28 48.85-30.25 46.95-30.25L46.95-30.25 38.9-30.25 38.9-18.7ZM83.44 0L63.2 0 63.2-34.9 83.44-34.9 83.44-30.25 68.5-30.25 68.5-20.05 82-20.05 82-15.45 68.5-15.45 68.5-4.65 83.44-4.65 83.44 0ZM102.44 0L88.64 0 88.64-4.25 92.89-4.25 92.89-30.65 88.64-30.65 88.64-34.9 102.44-34.9 102.44-30.65 98.19-30.65 98.19-4.25 102.44-4.25 102.44 0ZM133.74 0L128.39 0 125.69-9.65 113.94-9.65 111.24 0 106.04 0 116.49-34.9 123.24-34.9 133.74 0ZM124.44-14L121.19-25 120.09-30.1 119.44-30.1 118.34-25 115.24-14 124.44-14ZM138.64 0L138.64-34.9 150.14-34.9Q153.24-34.9 155.66-33.9 158.09-32.9 159.76-30.78 161.44-28.65 162.31-25.35 163.19-22.05 163.19-17.45L163.19-17.45Q163.19-12.85 162.31-9.55 161.44-6.25 159.76-4.13 158.09-2 155.66-1 153.24 0 150.14 0L150.14 0 138.64 0ZM143.94-4.65L150.14-4.65Q153.59-4.65 155.54-6.88 157.49-9.1 157.49-13.4L157.49-13.4 157.49-21.5Q157.49-25.8 155.54-28.03 153.59-30.25 150.14-30.25L150.14-30.25 143.94-30.25 143.94-4.65ZM189.74 0L169.49 0 169.49-34.9 189.74-34.9 189.74-30.25 174.79-30.25 174.79-20.05 188.29-20.05 188.29-15.45 174.79-15.45 174.79-4.65 189.74-4.65 189.74 0ZM209.13 0L202.68 0 192.43-34.9 197.98-34.9 204.18-12.95 205.63-4.8 206.28-4.8 207.73-12.95 213.88-34.9 219.33-34.9 209.13 0Z" opacity="1" transform="matrix(1,0,0,1,0,0)" fill="#0284c7" class="undefined-text-0" data-fill-palette-color="quaternary" id="text-0"></path></svg></g></svg></g></svg></g></svg></g><g></g></svg></g></svg><rect width="395.52" height="98.4521419829853" fill="none" stroke="none" visibility="hidden"></rect></g></svg></g></svg>