<svg viewBox="0 0 48 48" fill="none"><g clip-path="url(#prefix__clip0_8885_3175)" fill="#E84A1D"><path d="M24.824 46.868c-1.166.406-2.28.783-3.347 1.132H48v-6.276c-3.085.03-5.796.328-8.957.98-3.779.779-8.297 2.102-14.22 4.164zM25.364 41.321c-.9.626-1.771 1.22-2.617 1.784l.585-.203c6.114-2.129 10.815-3.502 14.793-4.322 3.432-.708 6.501-1.042 9.876-1.074v-6.324c-2.934.06-5.523.634-8.553 1.883-3.725 1.536-8.2 4.16-14.084 8.256zM25.69 35.768l-.43.449c4.98-3.34 8.985-5.597 12.46-7.03 3.563-1.468 6.757-2.162 10.28-2.225v-6.323c-2.8.092-5.294.93-8.23 2.745-3.717 2.299-8.19 6.233-14.08 12.384zM27.943 27.438c3.626-3.43 6.704-5.9 9.455-7.601 3.653-2.259 6.946-3.324 10.602-3.418v-6.323c-1.967.082-4.457.688-7.99 3.6-3.284 2.71-7.157 7.114-12.068 13.742z"/><path d="M0 0v48h.5c1.784-.175 4.172-.914 7.467-3.577 3.876-3.132 8.556-8.547 14.306-16.555 6.129-8.534 10.859-14.055 14.884-17.374C40.864 7.438 44.23 5.998 48 5.876V0H0z"/></g><defs><clipPath id="prefix__clip0_8885_3175"><path fill="#fff" d="M0 0h48v48H0z"/></clipPath></defs></svg>